<mxfile host="app.diagrams.net" modified="2020-12-29T18:34:24.797Z" agent="5.0 (Windows NT 10.0; Win64; x64) AppleWebKit/537.36 (KHTML, like Gecko) Chrome/87.0.4280.66 Safari/537.36" etag="mUTyLhm6hvoQNKPqBpXS" version="14.1.2" type="github">
  <diagram id="S4SSxZnU76sgoKgn_lOa" name="Page-1">
    <mxGraphModel dx="856" dy="581" grid="1" gridSize="10" guides="1" tooltips="1" connect="1" arrows="1" fold="1" page="1" pageScale="1" pageWidth="827" pageHeight="1169" math="0" shadow="0">
      <root>
        <mxCell id="0" />
        <mxCell id="1" parent="0" />
        <mxCell id="OizJflrkXp-SRMZogxtV-1" style="edgeStyle=orthogonalEdgeStyle;rounded=0;orthogonalLoop=1;jettySize=auto;html=1;exitX=1;exitY=0.5;exitDx=0;exitDy=0;entryX=0;entryY=0.5;entryDx=0;entryDy=0;" edge="1" parent="1" source="OizJflrkXp-SRMZogxtV-2" target="OizJflrkXp-SRMZogxtV-12">
          <mxGeometry relative="1" as="geometry" />
        </mxCell>
        <mxCell id="OizJflrkXp-SRMZogxtV-2" value="" style="ellipse;whiteSpace=wrap;html=1;aspect=fixed;fillColor=#f8cecc;strokeColor=#b85450;" vertex="1" parent="1">
          <mxGeometry x="110" y="270" width="20" height="20" as="geometry" />
        </mxCell>
        <mxCell id="OizJflrkXp-SRMZogxtV-3" style="edgeStyle=orthogonalEdgeStyle;rounded=0;orthogonalLoop=1;jettySize=auto;html=1;exitX=1;exitY=0.5;exitDx=0;exitDy=0;entryX=0;entryY=0.5;entryDx=0;entryDy=0;" edge="1" parent="1" source="OizJflrkXp-SRMZogxtV-4" target="OizJflrkXp-SRMZogxtV-15">
          <mxGeometry relative="1" as="geometry" />
        </mxCell>
        <mxCell id="OizJflrkXp-SRMZogxtV-4" value="" style="ellipse;whiteSpace=wrap;html=1;aspect=fixed;fillColor=#e1d5e7;strokeColor=#9673a6;" vertex="1" parent="1">
          <mxGeometry x="110" y="230" width="20" height="20" as="geometry" />
        </mxCell>
        <mxCell id="OizJflrkXp-SRMZogxtV-5" style="edgeStyle=orthogonalEdgeStyle;rounded=0;orthogonalLoop=1;jettySize=auto;html=1;exitX=1;exitY=0.5;exitDx=0;exitDy=0;entryX=0;entryY=0.5;entryDx=0;entryDy=0;" edge="1" parent="1" source="OizJflrkXp-SRMZogxtV-6" target="OizJflrkXp-SRMZogxtV-18">
          <mxGeometry relative="1" as="geometry" />
        </mxCell>
        <mxCell id="OizJflrkXp-SRMZogxtV-6" value="" style="ellipse;whiteSpace=wrap;html=1;aspect=fixed;fillColor=#d5e8d4;strokeColor=#82b366;" vertex="1" parent="1">
          <mxGeometry x="110" y="190" width="20" height="20" as="geometry" />
        </mxCell>
        <mxCell id="OizJflrkXp-SRMZogxtV-7" style="edgeStyle=orthogonalEdgeStyle;rounded=0;orthogonalLoop=1;jettySize=auto;html=1;exitX=1;exitY=0.5;exitDx=0;exitDy=0;entryX=0;entryY=0.5;entryDx=0;entryDy=0;" edge="1" parent="1" source="OizJflrkXp-SRMZogxtV-8" target="OizJflrkXp-SRMZogxtV-21">
          <mxGeometry relative="1" as="geometry" />
        </mxCell>
        <mxCell id="OizJflrkXp-SRMZogxtV-8" value="" style="ellipse;whiteSpace=wrap;html=1;aspect=fixed;fillColor=#dae8fc;strokeColor=#6c8ebf;" vertex="1" parent="1">
          <mxGeometry x="110" y="150" width="20" height="20" as="geometry" />
        </mxCell>
        <mxCell id="OizJflrkXp-SRMZogxtV-9" style="edgeStyle=orthogonalEdgeStyle;rounded=0;orthogonalLoop=1;jettySize=auto;html=1;exitX=1;exitY=0.5;exitDx=0;exitDy=0;entryX=0;entryY=0.5;entryDx=0;entryDy=0;" edge="1" parent="1" source="OizJflrkXp-SRMZogxtV-10" target="OizJflrkXp-SRMZogxtV-24">
          <mxGeometry relative="1" as="geometry" />
        </mxCell>
        <mxCell id="OizJflrkXp-SRMZogxtV-10" value="" style="ellipse;whiteSpace=wrap;html=1;aspect=fixed;" vertex="1" parent="1">
          <mxGeometry x="110" y="110" width="20" height="20" as="geometry" />
        </mxCell>
        <mxCell id="OizJflrkXp-SRMZogxtV-11" style="edgeStyle=orthogonalEdgeStyle;rounded=0;orthogonalLoop=1;jettySize=auto;html=1;exitX=1;exitY=0.5;exitDx=0;exitDy=0;" edge="1" parent="1" source="OizJflrkXp-SRMZogxtV-12" target="OizJflrkXp-SRMZogxtV-26">
          <mxGeometry relative="1" as="geometry" />
        </mxCell>
        <mxCell id="OizJflrkXp-SRMZogxtV-12" value="" style="ellipse;whiteSpace=wrap;html=1;aspect=fixed;fillColor=#f8cecc;strokeColor=#b85450;" vertex="1" parent="1">
          <mxGeometry x="190" y="270" width="20" height="20" as="geometry" />
        </mxCell>
        <mxCell id="OizJflrkXp-SRMZogxtV-13" style="edgeStyle=orthogonalEdgeStyle;rounded=0;orthogonalLoop=1;jettySize=auto;html=1;exitX=0.5;exitY=1;exitDx=0;exitDy=0;entryX=0.5;entryY=0;entryDx=0;entryDy=0;fillColor=#dae8fc;strokeColor=#6c8ebf;" edge="1" parent="1" source="OizJflrkXp-SRMZogxtV-15" target="OizJflrkXp-SRMZogxtV-12">
          <mxGeometry relative="1" as="geometry" />
        </mxCell>
        <mxCell id="OizJflrkXp-SRMZogxtV-14" style="edgeStyle=orthogonalEdgeStyle;rounded=0;orthogonalLoop=1;jettySize=auto;html=1;exitX=1;exitY=0.5;exitDx=0;exitDy=0;entryX=0;entryY=0.5;entryDx=0;entryDy=0;" edge="1" parent="1" source="OizJflrkXp-SRMZogxtV-15" target="OizJflrkXp-SRMZogxtV-29">
          <mxGeometry relative="1" as="geometry" />
        </mxCell>
        <mxCell id="OizJflrkXp-SRMZogxtV-15" value="" style="ellipse;whiteSpace=wrap;html=1;aspect=fixed;fillColor=#e1d5e7;strokeColor=#9673a6;" vertex="1" parent="1">
          <mxGeometry x="190" y="230" width="20" height="20" as="geometry" />
        </mxCell>
        <mxCell id="OizJflrkXp-SRMZogxtV-16" style="edgeStyle=orthogonalEdgeStyle;rounded=0;orthogonalLoop=1;jettySize=auto;html=1;exitX=0.5;exitY=1;exitDx=0;exitDy=0;entryX=0.5;entryY=0;entryDx=0;entryDy=0;fillColor=#dae8fc;strokeColor=#6c8ebf;" edge="1" parent="1" source="OizJflrkXp-SRMZogxtV-18" target="OizJflrkXp-SRMZogxtV-15">
          <mxGeometry relative="1" as="geometry" />
        </mxCell>
        <mxCell id="OizJflrkXp-SRMZogxtV-17" style="edgeStyle=orthogonalEdgeStyle;rounded=0;orthogonalLoop=1;jettySize=auto;html=1;exitX=1;exitY=0.5;exitDx=0;exitDy=0;" edge="1" parent="1" source="OizJflrkXp-SRMZogxtV-18" target="OizJflrkXp-SRMZogxtV-32">
          <mxGeometry relative="1" as="geometry" />
        </mxCell>
        <mxCell id="OizJflrkXp-SRMZogxtV-18" value="" style="ellipse;whiteSpace=wrap;html=1;aspect=fixed;fillColor=#d5e8d4;strokeColor=#82b366;" vertex="1" parent="1">
          <mxGeometry x="190" y="190" width="20" height="20" as="geometry" />
        </mxCell>
        <mxCell id="OizJflrkXp-SRMZogxtV-19" style="edgeStyle=orthogonalEdgeStyle;rounded=0;orthogonalLoop=1;jettySize=auto;html=1;exitX=0.5;exitY=1;exitDx=0;exitDy=0;entryX=0.5;entryY=0;entryDx=0;entryDy=0;fillColor=#dae8fc;strokeColor=#6c8ebf;" edge="1" parent="1" source="OizJflrkXp-SRMZogxtV-21" target="OizJflrkXp-SRMZogxtV-18">
          <mxGeometry relative="1" as="geometry" />
        </mxCell>
        <mxCell id="OizJflrkXp-SRMZogxtV-20" style="edgeStyle=orthogonalEdgeStyle;rounded=0;orthogonalLoop=1;jettySize=auto;html=1;exitX=1;exitY=0.5;exitDx=0;exitDy=0;" edge="1" parent="1" source="OizJflrkXp-SRMZogxtV-21" target="OizJflrkXp-SRMZogxtV-35">
          <mxGeometry relative="1" as="geometry" />
        </mxCell>
        <mxCell id="OizJflrkXp-SRMZogxtV-21" value="" style="ellipse;whiteSpace=wrap;html=1;aspect=fixed;fillColor=#dae8fc;strokeColor=#6c8ebf;" vertex="1" parent="1">
          <mxGeometry x="190" y="150" width="20" height="20" as="geometry" />
        </mxCell>
        <mxCell id="OizJflrkXp-SRMZogxtV-22" style="edgeStyle=orthogonalEdgeStyle;rounded=0;orthogonalLoop=1;jettySize=auto;html=1;exitX=1;exitY=0.5;exitDx=0;exitDy=0;entryX=0;entryY=0.5;entryDx=0;entryDy=0;" edge="1" parent="1" source="OizJflrkXp-SRMZogxtV-24" target="OizJflrkXp-SRMZogxtV-38">
          <mxGeometry relative="1" as="geometry" />
        </mxCell>
        <mxCell id="OizJflrkXp-SRMZogxtV-23" style="edgeStyle=orthogonalEdgeStyle;rounded=0;orthogonalLoop=1;jettySize=auto;html=1;exitX=0.5;exitY=1;exitDx=0;exitDy=0;entryX=0.5;entryY=0;entryDx=0;entryDy=0;fillColor=#dae8fc;strokeColor=#6c8ebf;" edge="1" parent="1" source="OizJflrkXp-SRMZogxtV-24" target="OizJflrkXp-SRMZogxtV-21">
          <mxGeometry relative="1" as="geometry" />
        </mxCell>
        <mxCell id="OizJflrkXp-SRMZogxtV-24" value="" style="ellipse;whiteSpace=wrap;html=1;aspect=fixed;" vertex="1" parent="1">
          <mxGeometry x="190" y="110" width="20" height="20" as="geometry" />
        </mxCell>
        <mxCell id="OizJflrkXp-SRMZogxtV-25" style="edgeStyle=orthogonalEdgeStyle;rounded=0;orthogonalLoop=1;jettySize=auto;html=1;exitX=1;exitY=0.5;exitDx=0;exitDy=0;" edge="1" parent="1" source="OizJflrkXp-SRMZogxtV-26">
          <mxGeometry relative="1" as="geometry">
            <mxPoint x="330" y="280.0344827586207" as="targetPoint" />
          </mxGeometry>
        </mxCell>
        <mxCell id="OizJflrkXp-SRMZogxtV-26" value="" style="ellipse;whiteSpace=wrap;html=1;aspect=fixed;fillColor=#f8cecc;strokeColor=#b85450;" vertex="1" parent="1">
          <mxGeometry x="270" y="270" width="20" height="20" as="geometry" />
        </mxCell>
        <mxCell id="OizJflrkXp-SRMZogxtV-27" style="edgeStyle=orthogonalEdgeStyle;rounded=0;orthogonalLoop=1;jettySize=auto;html=1;exitX=0.5;exitY=1;exitDx=0;exitDy=0;entryX=0.5;entryY=0;entryDx=0;entryDy=0;fillColor=#dae8fc;strokeColor=#6c8ebf;" edge="1" parent="1" source="OizJflrkXp-SRMZogxtV-29" target="OizJflrkXp-SRMZogxtV-26">
          <mxGeometry relative="1" as="geometry" />
        </mxCell>
        <mxCell id="OizJflrkXp-SRMZogxtV-28" style="edgeStyle=orthogonalEdgeStyle;rounded=0;orthogonalLoop=1;jettySize=auto;html=1;exitX=1;exitY=0.5;exitDx=0;exitDy=0;" edge="1" parent="1" source="OizJflrkXp-SRMZogxtV-29">
          <mxGeometry relative="1" as="geometry">
            <mxPoint x="330" y="240.0344827586207" as="targetPoint" />
          </mxGeometry>
        </mxCell>
        <mxCell id="OizJflrkXp-SRMZogxtV-29" value="" style="ellipse;whiteSpace=wrap;html=1;aspect=fixed;fillColor=#e1d5e7;strokeColor=#9673a6;" vertex="1" parent="1">
          <mxGeometry x="270" y="230" width="20" height="20" as="geometry" />
        </mxCell>
        <mxCell id="OizJflrkXp-SRMZogxtV-30" style="edgeStyle=orthogonalEdgeStyle;rounded=0;orthogonalLoop=1;jettySize=auto;html=1;exitX=0.5;exitY=1;exitDx=0;exitDy=0;entryX=0.5;entryY=0;entryDx=0;entryDy=0;fillColor=#dae8fc;strokeColor=#6c8ebf;" edge="1" parent="1" source="OizJflrkXp-SRMZogxtV-32" target="OizJflrkXp-SRMZogxtV-29">
          <mxGeometry relative="1" as="geometry" />
        </mxCell>
        <mxCell id="OizJflrkXp-SRMZogxtV-31" style="edgeStyle=orthogonalEdgeStyle;rounded=0;orthogonalLoop=1;jettySize=auto;html=1;exitX=1;exitY=0.5;exitDx=0;exitDy=0;" edge="1" parent="1" source="OizJflrkXp-SRMZogxtV-32">
          <mxGeometry relative="1" as="geometry">
            <mxPoint x="330" y="200.0344827586207" as="targetPoint" />
          </mxGeometry>
        </mxCell>
        <mxCell id="OizJflrkXp-SRMZogxtV-32" value="" style="ellipse;whiteSpace=wrap;html=1;aspect=fixed;fillColor=#d5e8d4;strokeColor=#82b366;" vertex="1" parent="1">
          <mxGeometry x="270" y="190" width="20" height="20" as="geometry" />
        </mxCell>
        <mxCell id="OizJflrkXp-SRMZogxtV-33" style="edgeStyle=orthogonalEdgeStyle;rounded=0;orthogonalLoop=1;jettySize=auto;html=1;exitX=0.5;exitY=1;exitDx=0;exitDy=0;entryX=0.5;entryY=0;entryDx=0;entryDy=0;fillColor=#dae8fc;strokeColor=#6c8ebf;" edge="1" parent="1" source="OizJflrkXp-SRMZogxtV-35" target="OizJflrkXp-SRMZogxtV-32">
          <mxGeometry relative="1" as="geometry" />
        </mxCell>
        <mxCell id="OizJflrkXp-SRMZogxtV-34" style="edgeStyle=orthogonalEdgeStyle;rounded=0;orthogonalLoop=1;jettySize=auto;html=1;exitX=1;exitY=0.5;exitDx=0;exitDy=0;" edge="1" parent="1" source="OizJflrkXp-SRMZogxtV-35">
          <mxGeometry relative="1" as="geometry">
            <mxPoint x="330" y="160.0344827586208" as="targetPoint" />
          </mxGeometry>
        </mxCell>
        <mxCell id="OizJflrkXp-SRMZogxtV-35" value="" style="ellipse;whiteSpace=wrap;html=1;aspect=fixed;fillColor=#dae8fc;strokeColor=#6c8ebf;" vertex="1" parent="1">
          <mxGeometry x="270" y="150" width="20" height="20" as="geometry" />
        </mxCell>
        <mxCell id="OizJflrkXp-SRMZogxtV-36" style="edgeStyle=orthogonalEdgeStyle;rounded=0;orthogonalLoop=1;jettySize=auto;html=1;exitX=0.5;exitY=1;exitDx=0;exitDy=0;entryX=0.5;entryY=0;entryDx=0;entryDy=0;fillColor=#dae8fc;strokeColor=#6c8ebf;" edge="1" parent="1" source="OizJflrkXp-SRMZogxtV-38" target="OizJflrkXp-SRMZogxtV-35">
          <mxGeometry relative="1" as="geometry" />
        </mxCell>
        <mxCell id="OizJflrkXp-SRMZogxtV-37" style="edgeStyle=orthogonalEdgeStyle;rounded=0;orthogonalLoop=1;jettySize=auto;html=1;exitX=1;exitY=0.5;exitDx=0;exitDy=0;" edge="1" parent="1" source="OizJflrkXp-SRMZogxtV-38">
          <mxGeometry relative="1" as="geometry">
            <mxPoint x="330" y="120.03448275862081" as="targetPoint" />
          </mxGeometry>
        </mxCell>
        <mxCell id="OizJflrkXp-SRMZogxtV-38" value="" style="ellipse;whiteSpace=wrap;html=1;aspect=fixed;" vertex="1" parent="1">
          <mxGeometry x="270" y="110" width="20" height="20" as="geometry" />
        </mxCell>
        <mxCell id="OizJflrkXp-SRMZogxtV-39" value="P6" style="text;html=1;resizable=0;autosize=1;align=center;verticalAlign=middle;points=[];fillColor=none;strokeColor=none;rounded=0;" vertex="1" parent="1">
          <mxGeometry x="65" y="150" width="30" height="20" as="geometry" />
        </mxCell>
        <mxCell id="OizJflrkXp-SRMZogxtV-40" value="P5" style="text;html=1;resizable=0;autosize=1;align=center;verticalAlign=middle;points=[];fillColor=none;strokeColor=none;rounded=0;" vertex="1" parent="1">
          <mxGeometry x="65" y="190" width="30" height="20" as="geometry" />
        </mxCell>
        <mxCell id="OizJflrkXp-SRMZogxtV-41" value="P4" style="text;html=1;resizable=0;autosize=1;align=center;verticalAlign=middle;points=[];fillColor=none;strokeColor=none;rounded=0;" vertex="1" parent="1">
          <mxGeometry x="65" y="230" width="30" height="20" as="geometry" />
        </mxCell>
        <mxCell id="OizJflrkXp-SRMZogxtV-42" value="P3" style="text;html=1;resizable=0;autosize=1;align=center;verticalAlign=middle;points=[];fillColor=none;strokeColor=none;rounded=0;" vertex="1" parent="1">
          <mxGeometry x="65" y="270" width="30" height="20" as="geometry" />
        </mxCell>
        <mxCell id="OizJflrkXp-SRMZogxtV-43" value="P7" style="text;html=1;resizable=0;autosize=1;align=center;verticalAlign=middle;points=[];fillColor=none;strokeColor=none;rounded=0;" vertex="1" parent="1">
          <mxGeometry x="65" y="110" width="30" height="20" as="geometry" />
        </mxCell>
        <mxCell id="OizJflrkXp-SRMZogxtV-44" value="" style="rounded=1;whiteSpace=wrap;html=1;fillColor=none;dashed=1;" vertex="1" parent="1">
          <mxGeometry x="170" y="90" width="130" height="220" as="geometry" />
        </mxCell>
      </root>
    </mxGraphModel>
  </diagram>
</mxfile>
